<?xml version="1.0" standalone="no"?>
<!DOCTYPE svg PUBLIC "-//W3C//DTD SVG 20010904//EN"
 "http://www.w3.org/TR/2001/REC-SVG-20010904/DTD/svg10.dtd">
<svg version="1.0" xmlns="http://www.w3.org/2000/svg"
 width="1080.000000pt" height="1080.000000pt" viewBox="0 0 1080.000000 1080.000000"
 preserveAspectRatio="xMidYMid meet">
<metadata>
Created by potrace 1.14, written by Peter Selinger 2001-2017
</metadata>
<g transform="translate(0.000000,1080.000000) scale(0.100000,-0.100000)"
fill="#000000" stroke="none">
<path d="M6709 9856 c-2 -2 -27 -7 -54 -10 -28 -4 -78 -13 -110 -22 -33 -8
-68 -16 -77 -18 -46 -12 -167 -60 -238 -95 -183 -92 -356 -235 -474 -391 -22
-30 -44 -57 -47 -60 -15 -12 -101 -172 -133 -245 -42 -97 -82 -233 -92 -312
-4 -32 -8 -1407 -8 -3055 -1 -1649 -3 -2999 -6 -2999 -3 -1 -88 -2 -190 -3
l-185 -1 0 3523 c0 1938 -4 3526 -8 3529 -10 6 -272 5 -347 -2 -30 -3 -80 -7
-111 -10 -190 -16 -456 -72 -649 -135 -173 -57 -422 -168 -545 -243 -137 -83
-330 -224 -401 -292 -11 -11 -47 -44 -78 -74 -84 -78 -213 -235 -292 -354
-169 -254 -291 -578 -330 -872 -3 -22 -9 -67 -13 -100 -12 -88 -10 -383 4
-510 6 -60 11 -123 9 -140 -11 -121 -16 -155 -30 -201 -20 -70 -67 -165 -117
-239 -22 -33 -43 -62 -46 -65 -3 -3 -20 -23 -37 -45 -17 -22 -82 -105 -144
-185 -63 -80 -160 -203 -216 -275 -56 -71 -109 -147 -118 -169 -35 -84 -12
-199 54 -264 42 -42 79 -61 162 -83 164 -42 221 -122 178 -249 -10 -29 -22
-55 -27 -59 -5 -3 -25 -26 -45 -51 -76 -96 -88 -152 -44 -216 31 -46 33 -87 6
-132 -33 -55 -27 -93 28 -159 125 -150 152 -301 94 -512 -32 -113 -36 -168
-19 -241 15 -65 43 -116 94 -171 67 -72 139 -107 253 -124 19 -3 42 -7 50 -10
8 -2 40 -6 71 -10 31 -3 66 -7 77 -10 11 -2 78 -6 149 -10 243 -12 268 -14
339 -29 416 -88 716 -419 948 -1048 l18 -48 1489 0 1489 0 1 38 c0 20 0 265 0
543 l1 506 56 18 c97 30 303 133 332 165 3 3 17 13 31 22 54 34 190 173 252
256 99 133 180 306 217 460 10 42 16 52 33 53 111 4 295 80 415 172 174 133
308 359 340 575 9 62 8 237 -2 277 -20 83 -22 78 36 115 29 19 96 77 149 130
171 168 274 360 324 599 22 107 22 333 0 441 -18 91 -64 229 -97 295 -18 36
-103 167 -143 221 -14 19 -14 24 0 57 34 81 67 265 68 372 2 287 -128 586
-342 788 -105 99 -212 166 -366 229 -58 24 -60 27 -72 74 -28 115 -34 135 -52
181 -61 154 -127 271 -219 386 -204 258 -484 429 -822 503 -67 15 -410 31
-421 20z m294 -330 c479 -76 834 -423 912 -891 8 -47 12 -131 10 -205 -6 -199
-58 -365 -172 -549 -40 -64 -46 -80 -46 -128 0 -45 5 -60 30 -91 41 -51 87
-73 142 -66 70 8 96 27 148 104 95 143 185 368 207 518 3 23 9 61 12 85 3 23
8 44 10 46 7 8 116 -65 170 -112 179 -160 281 -449 239 -677 -5 -25 -8 -49 -7
-53 3 -12 -38 2 -68 23 -36 24 -123 59 -164 66 -46 7 -116 -24 -145 -64 -34
-48 -42 -112 -19 -161 18 -39 87 -101 112 -101 19 0 157 -89 214 -138 114 -96
219 -273 258 -432 26 -106 24 -287 -5 -395 -42 -155 -113 -278 -227 -390 -131
-128 -278 -198 -484 -231 -137 -22 -191 -184 -92 -279 24 -24 48 -36 81 -42
25 -4 50 -6 54 -5 4 1 24 5 45 8 20 3 54 10 76 15 21 6 41 8 44 4 8 -7 7 -163
-1 -198 -42 -187 -169 -341 -339 -408 -62 -24 -88 -31 -89 -21 0 4 -2 14 -3
22 -2 8 -6 35 -9 60 -7 60 -41 192 -68 260 -70 185 -243 431 -326 466 -126 54
-254 -48 -229 -181 5 -23 31 -64 76 -118 154 -183 230 -383 232 -607 1 -71 -5
-133 -18 -190 -3 -14 -7 -35 -10 -48 -26 -125 -134 -313 -242 -422 -247 -247
-625 -334 -957 -220 -99 34 -166 22 -218 -39 -67 -80 -38 -200 62 -250 36 -18
158 -55 216 -65 17 -3 41 -8 55 -11 20 -4 116 -12 185 -15 10 0 15 -749 5
-751 -3 -1 -195 -2 -428 -3 -416 -1 -423 -1 -427 19 -6 33 -2 2285 4 2289 3 2
40 -5 81 -15 314 -81 635 109 720 427 26 95 21 252 -9 311 -61 120 -226 122
-292 3 -9 -17 -13 -61 -14 -135 0 -93 -4 -116 -22 -150 -47 -88 -138 -144
-232 -145 -79 0 -128 18 -185 71 l-51 47 -1 1023 c-1 1003 -1 1025 18 1052 51
72 171 107 251 73 86 -37 129 -107 133 -213 3 -85 16 -116 67 -157 78 -63 202
-34 243 55 9 21 18 66 19 100 2 55 -2 84 -19 167 -20 93 -130 239 -229 303
-116 75 -288 106 -410 73 -28 -7 -57 -14 -62 -14 -12 0 -13 793 -1 850 39 194
112 340 244 491 155 177 356 294 597 345 11 3 49 7 85 11 36 3 66 7 68 8 5 4
157 -3 195 -9z"/>
<path d="M6750 9200 c-313 -58 -550 -334 -558 -650 -3 -108 21 -162 88 -197
54 -29 94 -29 150 0 62 31 82 70 91 177 12 148 72 247 187 308 109 58 231 56
343 -5 97 -52 167 -162 176 -276 7 -83 39 -139 96 -166 50 -24 77 -26 130 -7
70 25 106 91 101 186 -4 94 -21 154 -69 255 -87 183 -270 329 -462 371 -48 10
-226 13 -273 4z"/>
<path d="M6705 8064 c-98 -33 -142 -151 -88 -234 41 -62 73 -76 188 -84 100
-6 111 -9 177 -40 98 -46 197 -174 215 -277 8 -43 7 -135 -2 -174 -24 -113
-109 -215 -228 -275 -45 -23 -91 -50 -102 -61 -52 -48 -56 -153 -8 -209 61
-73 134 -81 247 -27 112 53 190 112 267 203 66 78 140 241 154 341 7 49 7 199
0 238 -50 265 -232 481 -480 568 -117 42 -270 56 -340 31z"/>
<path d="M8111 7048 c-88 -47 -116 -161 -60 -237 13 -18 44 -45 69 -59 25 -14
56 -35 68 -46 61 -54 85 -167 54 -249 -35 -90 -100 -133 -218 -146 -118 -14
-177 -69 -177 -166 0 -110 89 -173 230 -160 167 15 324 109 417 249 67 100 89
181 90 316 0 170 -79 328 -218 434 -111 84 -183 102 -255 64z"/>
<path d="M6225 6825 c-93 -44 -118 -130 -87 -305 22 -123 63 -229 125 -320
131 -190 323 -317 547 -359 86 -16 273 -6 358 18 202 59 372 183 480 351 65
102 82 157 68 225 -3 11 -5 23 -5 26 -1 4 -17 23 -37 43 -62 62 -157 66 -220
9 -17 -15 -46 -57 -64 -92 -82 -155 -254 -261 -422 -262 -151 -1 -264 45 -369
150 -93 94 -135 190 -146 336 -3 44 -11 91 -18 105 -40 77 -134 111 -210 75z"/>
<path d="M6940 5134 c-22 -9 -47 -31 -63 -56 -37 -57 -37 -120 0 -191 24 -45
28 -64 28 -137 0 -73 -4 -92 -27 -135 -64 -121 -188 -178 -329 -152 -35 7 -80
31 -141 75 -65 46 -135 50 -192 12 -40 -27 -76 -91 -76 -133 0 -38 27 -101 53
-123 129 -112 268 -166 426 -165 270 2 494 163 588 423 23 63 27 89 27 193 1
135 -19 216 -77 313 -50 83 -132 112 -217 76z"/>
<path d="M4010 1927 l0 -142 1490 0 1490 0 1 40 c0 22 1 86 2 143 l2 102
-1492 0 -1493 0 0 -143z"/>
<path d="M4476 1551 c-2 -3 -4 -67 -3 -141 l0 -135 294 0 c162 0 298 -2 302
-5 4 -3 11 -25 15 -50 16 -105 91 -201 194 -251 66 -31 196 -32 264 -1 102 45
180 148 196 254 l7 53 393 0 392 0 0 141 0 141 -1025 0 c-564 0 -1027 -3
-1029 -6z"/>
</g>
</svg>
